<svg id="visual" viewBox="0 0 3000 1687" width="3000" height="1687" xmlns="http://www.w3.org/2000/svg" xmlns:xlink="http://www.w3.org/1999/xlink" version="1.1"><g stroke-width="1" stroke-linejoin="bevel"><path d="M1610.4 732L1875.1 494L1648.4 506Z" fill="#03243b" stroke="#03243b"></path><path d="M1610.4 732L1948.1 688L1875.1 494Z" fill="#03243b" stroke="#03243b"></path><path d="M1610.4 732L1930.1 940L1948.1 688Z" fill="#00385e" stroke="#00385e"></path><path d="M1610.4 732L1660.4 979L1930.1 940Z" fill="#004270" stroke="#004270"></path><path d="M2155.8 960L2166.8 689L1948.1 688Z" fill="#004c83" stroke="#004c83"></path><path d="M1948.1 688L2190.8 500L1875.1 494Z" fill="#03243b" stroke="#03243b"></path><path d="M2190.8 500L1898.1 260L1875.1 494Z" fill="#004270" stroke="#004270"></path><path d="M1875.1 494L1898.1 260L1648.4 506Z" fill="#004270" stroke="#004270"></path><path d="M1648.4 506L1366.6 757L1610.4 732Z" fill="#041a2b" stroke="#041a2b"></path><path d="M1610.4 732L1367.6 1003L1660.4 979Z" fill="#00385e" stroke="#00385e"></path><path d="M1329.6 452L1366.6 757L1648.4 506Z" fill="#00385e" stroke="#00385e"></path><path d="M2166.8 689L2190.8 500L1948.1 688Z" fill="#012e4c" stroke="#012e4c"></path><path d="M1898.1 260L1607.4 217L1648.4 506Z" fill="#0161aa" stroke="#0161aa"></path><path d="M1607.4 217L1329.6 452L1648.4 506Z" fill="#0c6bbe" stroke="#0c6bbe"></path><path d="M1907.1 1190L2155.8 960L1930.1 940Z" fill="#0c6bbe" stroke="#0c6bbe"></path><path d="M1930.1 940L2155.8 960L1948.1 688Z" fill="#00101c" stroke="#00101c"></path><path d="M2166.8 689L2455.5 454L2190.8 500Z" fill="#041a2b" stroke="#041a2b"></path><path d="M1366.6 757L1367.6 1003L1610.4 732Z" fill="#00385e" stroke="#00385e"></path><path d="M1660.4 979L1907.1 1190L1930.1 940Z" fill="#005796" stroke="#005796"></path><path d="M1069.9 950L1367.6 1003L1366.6 757Z" fill="#0161aa" stroke="#0161aa"></path><path d="M1622.4 1196L1907.1 1190L1660.4 979Z" fill="#041a2b" stroke="#041a2b"></path><path d="M1367.6 1003L1622.4 1196L1660.4 979Z" fill="#0161aa" stroke="#0161aa"></path><path d="M1607.4 217L1350.6 223L1329.6 452Z" fill="#00101c" stroke="#00101c"></path><path d="M2190.8 500L2212.8 238L1898.1 260Z" fill="#00101c" stroke="#00101c"></path><path d="M1898.1 260L1665.4 0L1607.4 217Z" fill="#03243b" stroke="#03243b"></path><path d="M2455.5 454L2212.8 238L2190.8 500Z" fill="#00101c" stroke="#00101c"></path><path d="M1932.1 0L1665.4 0L1898.1 260Z" fill="#00385e" stroke="#00385e"></path><path d="M1607.4 217L1361.6 0L1350.6 223Z" fill="#1976d2" stroke="#1976d2"></path><path d="M2212.8 238L1932.1 0L1898.1 260Z" fill="#005796" stroke="#005796"></path><path d="M1907.1 1190L2142.8 1206L2155.8 960Z" fill="#03243b" stroke="#03243b"></path><path d="M2485.5 754L2455.5 454L2166.8 689Z" fill="#0161aa" stroke="#0161aa"></path><path d="M1937.1 1482L2142.8 1206L1907.1 1190Z" fill="#1976d2" stroke="#1976d2"></path><path d="M1084.9 249L1103.9 518L1329.6 452Z" fill="#005796" stroke="#005796"></path><path d="M1329.6 452L1103.9 518L1366.6 757Z" fill="#041a2b" stroke="#041a2b"></path><path d="M1103.9 518L1091.9 699L1366.6 757Z" fill="#00385e" stroke="#00385e"></path><path d="M2485.5 754L2166.8 689L2155.8 960Z" fill="#1976d2" stroke="#1976d2"></path><path d="M2474.5 973L2485.5 754L2155.8 960Z" fill="#0161aa" stroke="#0161aa"></path><path d="M1367.6 1003L1324.6 1218L1622.4 1196Z" fill="#012e4c" stroke="#012e4c"></path><path d="M1622.4 1196L1618.4 1440L1907.1 1190Z" fill="#0c6bbe" stroke="#0c6bbe"></path><path d="M1109.9 1236L1324.6 1218L1367.6 1003Z" fill="#005796" stroke="#005796"></path><path d="M1665.4 0L1361.6 0L1607.4 217Z" fill="#041a2b" stroke="#041a2b"></path><path d="M1350.6 223L1084.9 249L1329.6 452Z" fill="#00385e" stroke="#00385e"></path><path d="M2467.5 0L2177.8 0L2212.8 238Z" fill="#041a2b" stroke="#041a2b"></path><path d="M2212.8 238L2177.8 0L1932.1 0Z" fill="#005796" stroke="#005796"></path><path d="M852.2 722L1069.9 950L1091.9 699Z" fill="#004270" stroke="#004270"></path><path d="M1091.9 699L1069.9 950L1366.6 757Z" fill="#041a2b" stroke="#041a2b"></path><path d="M2455.5 454L2426.5 249L2212.8 238Z" fill="#041a2b" stroke="#041a2b"></path><path d="M2444.5 1181L2474.5 973L2155.8 960Z" fill="#0161aa" stroke="#0161aa"></path><path d="M1111.9 0L1084.9 249L1350.6 223Z" fill="#03243b" stroke="#03243b"></path><path d="M1103.9 518L852.2 722L1091.9 699Z" fill="#004270" stroke="#004270"></path><path d="M1385.6 1439L1618.4 1440L1622.4 1196Z" fill="#0c6bbe" stroke="#0c6bbe"></path><path d="M1618.4 1440L1937.1 1482L1907.1 1190Z" fill="#1976d2" stroke="#1976d2"></path><path d="M2142.8 1206L2444.5 1181L2155.8 960Z" fill="#041a2b" stroke="#041a2b"></path><path d="M2437.5 1444L2444.5 1181L2142.8 1206Z" fill="#0161aa" stroke="#0161aa"></path><path d="M1109.9 1236L1385.6 1439L1324.6 1218Z" fill="#005796" stroke="#005796"></path><path d="M1324.6 1218L1385.6 1439L1622.4 1196Z" fill="#041a2b" stroke="#041a2b"></path><path d="M1618.4 1440L1668.4 1687L1937.1 1482Z" fill="#012e4c" stroke="#012e4c"></path><path d="M1069.9 950L1109.9 1236L1367.6 1003Z" fill="#012e4c" stroke="#012e4c"></path><path d="M1937.1 1482L2169.8 1450L2142.8 1206Z" fill="#03243b" stroke="#03243b"></path><path d="M1361.6 0L1111.9 0L1350.6 223Z" fill="#004270" stroke="#004270"></path><path d="M844.2 472L852.2 722L1103.9 518Z" fill="#012e4c" stroke="#012e4c"></path><path d="M1069.9 950L829.2 1241L1109.9 1236Z" fill="#03243b" stroke="#03243b"></path><path d="M844.2 472L1103.9 518L1084.9 249Z" fill="#004c83" stroke="#004c83"></path><path d="M2485.5 754L2693.3 476L2455.5 454Z" fill="#03243b" stroke="#03243b"></path><path d="M2455.5 454L2743.3 253L2426.5 249Z" fill="#03243b" stroke="#03243b"></path><path d="M2426.5 249L2467.5 0L2212.8 238Z" fill="#00385e" stroke="#00385e"></path><path d="M2715.3 718L2693.3 476L2485.5 754Z" fill="#0161aa" stroke="#0161aa"></path><path d="M2715.3 718L2485.5 754L2730.3 981Z" fill="#004270" stroke="#004270"></path><path d="M852.2 206L844.2 472L1084.9 249Z" fill="#004270" stroke="#004270"></path><path d="M2701.3 0L2467.5 0L2426.5 249Z" fill="#00101c" stroke="#00101c"></path><path d="M2730.3 981L2485.5 754L2474.5 973Z" fill="#0161aa" stroke="#0161aa"></path><path d="M1111.9 0L852.2 206L1084.9 249Z" fill="#005796" stroke="#005796"></path><path d="M2710.3 1205L2730.3 981L2474.5 973Z" fill="#0c6bbe" stroke="#0c6bbe"></path><path d="M2710.3 1205L2474.5 973L2444.5 1181Z" fill="#004270" stroke="#004270"></path><path d="M567.5 738L783.2 978L852.2 722Z" fill="#1976d2" stroke="#1976d2"></path><path d="M852.2 722L783.2 978L1069.9 950Z" fill="#041a2b" stroke="#041a2b"></path><path d="M567.5 738L852.2 722L844.2 472Z" fill="#005796" stroke="#005796"></path><path d="M2183.8 1687L2437.5 1444L2169.8 1450Z" fill="#0c6bbe" stroke="#0c6bbe"></path><path d="M2169.8 1450L2437.5 1444L2142.8 1206Z" fill="#0c6bbe" stroke="#0c6bbe"></path><path d="M3000 505L2743.3 253L2693.3 476Z" fill="#00101c" stroke="#00101c"></path><path d="M2693.3 476L2743.3 253L2455.5 454Z" fill="#00385e" stroke="#00385e"></path><path d="M3000 505L2693.3 476L2715.3 718Z" fill="#00101c" stroke="#00101c"></path><path d="M1338.6 1687L1668.4 1687L1618.4 1440Z" fill="#0161aa" stroke="#0161aa"></path><path d="M1937.1 1482L2183.8 1687L2169.8 1450Z" fill="#00385e" stroke="#00385e"></path><path d="M1338.6 1687L1618.4 1440L1385.6 1439Z" fill="#012e4c" stroke="#012e4c"></path><path d="M1055.9 1449L1385.6 1439L1109.9 1236Z" fill="#0161aa" stroke="#0161aa"></path><path d="M1668.4 1687L1906.1 1687L1937.1 1482Z" fill="#0c6bbe" stroke="#0c6bbe"></path><path d="M829.2 1241L1055.9 1449L1109.9 1236Z" fill="#004c83" stroke="#004c83"></path><path d="M2437.5 1444L2710.3 1205L2444.5 1181Z" fill="#00101c" stroke="#00101c"></path><path d="M783.2 978L829.2 1241L1069.9 950Z" fill="#03243b" stroke="#03243b"></path><path d="M1906.1 1687L2183.8 1687L1937.1 1482Z" fill="#0161aa" stroke="#0161aa"></path><path d="M2437.5 1444L2719.3 1485L2710.3 1205Z" fill="#00101c" stroke="#00101c"></path><path d="M1111.9 0L845.2 0L852.2 206Z" fill="#041a2b" stroke="#041a2b"></path><path d="M524.5 512L567.5 738L844.2 472Z" fill="#004270" stroke="#004270"></path><path d="M1113.9 1687L1338.6 1687L1385.6 1439Z" fill="#005796" stroke="#005796"></path><path d="M2743.3 253L2701.3 0L2426.5 249Z" fill="#004270" stroke="#004270"></path><path d="M524.5 512L844.2 472L556.5 215Z" fill="#005796" stroke="#005796"></path><path d="M783.2 978L574.5 1199L829.2 1241Z" fill="#00101c" stroke="#00101c"></path><path d="M829.2 1241L821.2 1410L1055.9 1449Z" fill="#00385e" stroke="#00385e"></path><path d="M1055.9 1449L1113.9 1687L1385.6 1439Z" fill="#004270" stroke="#004270"></path><path d="M574.5 1199L821.2 1410L829.2 1241Z" fill="#004270" stroke="#004270"></path><path d="M792.2 1687L1113.9 1687L1055.9 1449Z" fill="#041a2b" stroke="#041a2b"></path><path d="M3000 982L3000 758L2730.3 981Z" fill="#00101c" stroke="#00101c"></path><path d="M2730.3 981L3000 758L2715.3 718Z" fill="#041a2b" stroke="#041a2b"></path><path d="M2743.3 253L3000 0L2701.3 0Z" fill="#0c6bbe" stroke="#0c6bbe"></path><path d="M3000 758L3000 505L2715.3 718Z" fill="#00101c" stroke="#00101c"></path><path d="M556.5 215L844.2 472L852.2 206Z" fill="#005796" stroke="#005796"></path><path d="M302.7 741L549.5 934L567.5 738Z" fill="#0161aa" stroke="#0161aa"></path><path d="M567.5 738L549.5 934L783.2 978Z" fill="#00385e" stroke="#00385e"></path><path d="M2183.8 1687L2486.5 1687L2437.5 1444Z" fill="#00385e" stroke="#00385e"></path><path d="M3000 1182L3000 982L2730.3 981Z" fill="#004c83" stroke="#004c83"></path><path d="M2486.5 1687L2719.3 1485L2437.5 1444Z" fill="#03243b" stroke="#03243b"></path><path d="M3000 1182L2730.3 981L2710.3 1205Z" fill="#0161aa" stroke="#0161aa"></path><path d="M845.2 0L556.5 215L852.2 206Z" fill="#041a2b" stroke="#041a2b"></path><path d="M3000 505L3000 253L2743.3 253Z" fill="#00385e" stroke="#00385e"></path><path d="M549.5 934L574.5 1199L783.2 978Z" fill="#004c83" stroke="#004c83"></path><path d="M821.2 1410L792.2 1687L1055.9 1449Z" fill="#041a2b" stroke="#041a2b"></path><path d="M3000 1471L3000 1182L2710.3 1205Z" fill="#00385e" stroke="#00385e"></path><path d="M845.2 0L555.5 0L556.5 215Z" fill="#00385e" stroke="#00385e"></path><path d="M262.7 491L302.7 741L524.5 512Z" fill="#005796" stroke="#005796"></path><path d="M3000 253L3000 0L2743.3 253Z" fill="#03243b" stroke="#03243b"></path><path d="M2486.5 1687L2723.3 1687L2719.3 1485Z" fill="#00101c" stroke="#00101c"></path><path d="M2719.3 1485L3000 1471L2710.3 1205Z" fill="#0c6bbe" stroke="#0c6bbe"></path><path d="M539.5 1450L792.2 1687L821.2 1410Z" fill="#00385e" stroke="#00385e"></path><path d="M549.5 934L298.7 994L574.5 1199Z" fill="#1976d2" stroke="#1976d2"></path><path d="M574.5 1199L539.5 1450L821.2 1410Z" fill="#005796" stroke="#005796"></path><path d="M524.5 512L302.7 741L567.5 738Z" fill="#0161aa" stroke="#0161aa"></path><path d="M262.7 491L524.5 512L276.7 206Z" fill="#005796" stroke="#005796"></path><path d="M269.7 1243L539.5 1450L574.5 1199Z" fill="#004270" stroke="#004270"></path><path d="M3000 1687L3000 1471L2719.3 1485Z" fill="#012e4c" stroke="#012e4c"></path><path d="M302.7 741L298.7 994L549.5 934Z" fill="#004270" stroke="#004270"></path><path d="M276.7 206L524.5 512L556.5 215Z" fill="#041a2b" stroke="#041a2b"></path><path d="M302.7 741L0 745L298.7 994Z" fill="#005796" stroke="#005796"></path><path d="M285.7 0L276.7 206L556.5 215Z" fill="#00101c" stroke="#00101c"></path><path d="M2723.3 1687L3000 1687L2719.3 1485Z" fill="#012e4c" stroke="#012e4c"></path><path d="M0 1001L269.7 1243L298.7 994Z" fill="#005796" stroke="#005796"></path><path d="M298.7 994L269.7 1243L574.5 1199Z" fill="#1976d2" stroke="#1976d2"></path><path d="M539.5 1450L536.5 1687L792.2 1687Z" fill="#00385e" stroke="#00385e"></path><path d="M258.7 1687L536.5 1687L539.5 1450Z" fill="#0161aa" stroke="#0161aa"></path><path d="M0 494L0 745L262.7 491Z" fill="#03243b" stroke="#03243b"></path><path d="M555.5 0L285.7 0L556.5 215Z" fill="#0c6bbe" stroke="#0c6bbe"></path><path d="M0 1216L244.7 1424L269.7 1243Z" fill="#012e4c" stroke="#012e4c"></path><path d="M269.7 1243L244.7 1424L539.5 1450Z" fill="#005796" stroke="#005796"></path><path d="M262.7 491L0 745L302.7 741Z" fill="#00101c" stroke="#00101c"></path><path d="M0 494L262.7 491L0 212Z" fill="#00385e" stroke="#00385e"></path><path d="M0 212L262.7 491L276.7 206Z" fill="#1976d2" stroke="#1976d2"></path><path d="M0 745L0 1001L298.7 994Z" fill="#0c6bbe" stroke="#0c6bbe"></path><path d="M0 0L0 212L276.7 206Z" fill="#03243b" stroke="#03243b"></path><path d="M244.7 1424L258.7 1687L539.5 1450Z" fill="#00385e" stroke="#00385e"></path><path d="M0 1687L258.7 1687L244.7 1424Z" fill="#03243b" stroke="#03243b"></path><path d="M0 1001L0 1216L269.7 1243Z" fill="#00101c" stroke="#00101c"></path><path d="M285.7 0L0 0L276.7 206Z" fill="#012e4c" stroke="#012e4c"></path><path d="M0 1216L0 1415L244.7 1424Z" fill="#005796" stroke="#005796"></path><path d="M0 1415L0 1687L244.7 1424Z" fill="#004c83" stroke="#004c83"></path></g></svg>